<svg width="1440" height="188" viewBox="0 0 1440 188" fill="none" xmlns="http://www.w3.org/2000/svg">
<g opacity="0.05">
<path d="M122.921 183.738L133.456 136.073H65.1075L94.2843 3.09961H39.7128L0 183.738H122.921Z" fill="white"/>
<path d="M281.534 183.738L291.53 138.24H209.403L214.536 115.221H294.772L304.768 69.7219H224.532L229.125 48.5979H311.251L321.247 3.09961H184.549L144.836 183.738H281.534Z" fill="white"/>
<path d="M398.98 183.738L428.157 50.7644H476.244L486.78 3.09961H335.763L325.227 50.7644H373.585L344.409 183.738H398.98Z" fill="white"/>
<path d="M516.146 91.9297L543.432 32.8904C544.513 30.4529 545.863 26.9322 545.863 22.8699C545.863 9.87041 535.597 0.391602 523.981 0.391602C508.312 0.391602 495.074 12.8494 495.344 29.0988L496.155 91.9297H516.146Z" fill="white"/>
<path d="M529.645 151.782C547.475 173.177 581.514 186.988 619.876 186.988C666.343 186.988 695.25 159.093 695.25 125.512C695.25 91.1172 658.239 77.3053 632.573 69.1806C619.066 64.8474 609.611 60.785 609.611 54.827C609.611 49.9522 613.663 45.619 623.658 45.619C639.327 45.619 662.831 52.9312 676.339 67.5556L708.217 30.4529C688.496 10.6829 659.049 0.391602 629.602 0.391602C578.272 0.391602 553.688 33.7028 553.688 57.806C553.688 95.7212 590.43 108.721 615.825 116.845C629.872 121.449 638.518 125.512 638.518 132.011C638.518 136.616 634.465 140.948 623.388 140.948C599.885 140.948 574.491 130.116 561.253 113.866L529.645 151.782Z" fill="white"/>
<path d="M862.248 183.738L891.425 50.7644H939.513L950.049 3.09961H799.032L788.496 50.7644H836.854L807.677 183.738H862.248Z" fill="white"/>
<path d="M1098.35 183.738L1071.6 3.09961H1002.98L896.812 183.738H958.678L970.835 160.448H1039.73L1041.88 183.738H1098.35ZM1035.94 114.949H994.884L1029.73 48.5979L1035.94 114.949Z" fill="white"/>
<path d="M1230.98 183.738L1241.52 136.073H1173.16L1202.34 3.09961H1147.77L1108.06 183.738H1230.98Z" fill="white"/>
<path d="M1424.45 183.738L1374.74 87.0546L1461.19 3.09961H1391.76L1333.14 67.0138L1347.18 3.09961H1292.61L1252.9 183.738H1307.47L1318.55 133.636L1332.86 118.47L1360.69 183.738H1424.45Z" fill="white"/>
<path d="M1494.12 116.575L1526 3.09961H1468.18L1450.35 116.575H1494.12ZM1434.41 160.448C1434.41 175.072 1446.03 187.259 1460.62 187.259C1477.64 187.259 1492.23 172.906 1492.23 155.844C1492.23 141.22 1480.62 129.032 1466.03 129.032C1449 129.032 1434.41 143.386 1434.41 160.448Z" fill="white"/>
</g>
</svg>
