<svg xmlns="http://www.w3.org/2000/svg" width="39" height="39" fill="none" viewBox="0 0 39 39"><path fill="#3D5287" d="m25.877 28.445 3.199-15.082c.13-.639.054-1.096-.229-1.371-.283-.276-.656-.327-1.12-.153L8.923 19.087c-.42.16-.707.34-.86.544-.152.203-.17.395-.054.576.116.182.348.323.696.425l4.81 1.501 11.165-7.03c.304-.202.537-.246.696-.13.102.073.073.182-.087.327l-9.032 8.16-.348 4.963c.334 0 .66-.16.98-.479l2.35-2.263 4.875 3.59c.928.523 1.516.247 1.763-.826ZM39 19.5c0 2.64-.515 5.165-1.545 7.574-1.03 2.408-2.416 4.483-4.157 6.224-1.741 1.741-3.816 3.127-6.224 4.157A19.063 19.063 0 0 1 19.5 39a19.07 19.07 0 0 1-7.574-1.545c-2.408-1.03-4.483-2.416-6.224-4.157-1.741-1.741-3.127-3.816-4.157-6.224A19.063 19.063 0 0 1 0 19.5c0-2.64.515-5.165 1.545-7.574 1.03-2.408 2.416-4.483 4.157-6.224 1.741-1.741 3.816-3.127 6.224-4.157A19.063 19.063 0 0 1 19.5 0c2.64 0 5.165.515 7.574 1.545 2.408 1.03 4.483 2.416 6.224 4.157 1.741 1.741 3.127 3.816 4.157 6.224A19.063 19.063 0 0 1 39 19.5Z"/></svg>